<svg id="svg" version="1.1" xmlns="http://www.w3.org/2000/svg" xmlns:xlink="http://www.w3.org/1999/xlink" width="400" height="294.80812641083526" viewBox="0, 0, 400,294.80812641083526"><g id="svgg"><path id="path0" d="M197.404 87.288 C 191.924 90.218,166.073 105.412,165.425 106.083 C 164.186 107.366,164.111 107.917,164.110 115.693 L 164.108 122.696 181.504 132.736 C 191.071 138.258,199.081 142.807,199.303 142.844 C 199.525 142.882,205.893 139.339,213.454 134.971 C 221.015 130.604,227.328 126.982,227.483 126.922 C 227.702 126.838,227.765 127.715,227.765 130.855 L 227.765 134.896 213.713 142.993 C 205.985 147.446,199.598 151.122,199.521 151.161 C 199.443 151.201,191.622 146.751,182.139 141.273 C 172.657 135.794,164.711 131.262,164.482 131.200 C 163.798 131.015,164.017 137.179,164.743 138.553 C 165.389 139.774,164.527 139.239,182.819 149.782 L 198.032 158.550 199.432 158.550 L 200.832 158.550 216.048 149.779 C 234.398 139.201,233.484 139.769,234.133 138.553 C 234.616 137.649,235.140 114.673,234.678 114.673 C 234.620 114.673,226.718 119.209,217.117 124.754 C 207.517 130.299,199.560 134.836,199.436 134.837 C 199.312 134.837,192.887 131.190,185.160 126.731 L 171.109 118.623 171.108 114.592 C 171.106 111.090,171.151 110.578,171.447 110.692 C 171.634 110.764,174.780 112.552,178.438 114.666 C 182.096 116.780,185.199 118.510,185.333 118.510 C 185.468 118.510,191.822 114.904,199.453 110.497 C 207.084 106.089,213.453 102.485,213.605 102.488 C 214.014 102.496,220.326 106.172,220.343 106.412 C 220.350 106.525,214.184 110.181,206.641 114.539 C 199.097 118.896,192.890 122.566,192.848 122.694 C 192.746 123.005,199.058 126.678,199.547 126.591 C 200.200 126.476,233.860 106.918,233.860 106.654 C 233.860 106.049,214.533 94.357,213.533 94.357 C 213.420 94.357,207.084 97.963,199.453 102.370 C 191.822 106.778,185.467 110.384,185.332 110.384 C 184.988 110.384,178.664 106.705,178.584 106.459 C 178.548 106.348,184.691 102.691,192.235 98.332 C 199.779 93.973,205.985 90.300,206.026 90.170 C 206.068 90.040,204.910 89.253,203.453 88.420 C 200.529 86.751,198.959 86.456,197.404 87.288 " stroke="none" fill="#f40434" fill-rule="evenodd"></path><path id="path1" d="M99.097 187.265 L 99.097 207.487 107.506 207.386 C 118.703 207.252,121.650 206.525,125.573 202.929 C 134.212 195.011,133.777 177.189,124.789 170.816 C 120.309 167.640,117.443 167.053,106.377 167.047 L 99.097 167.043 99.097 187.265 M140.406 187.246 L 140.406 207.449 144.639 207.449 L 148.871 207.449 148.813 187.246 L 148.754 167.043 144.580 167.043 L 140.406 167.043 140.406 187.246 M159.819 187.246 L 159.819 207.449 164.052 207.449 L 168.284 207.449 168.284 199.154 L 168.284 190.858 170.655 190.797 L 173.025 190.737 177.540 198.786 C 180.023 203.213,182.156 206.975,182.281 207.147 C 182.463 207.398,183.354 207.447,186.826 207.398 L 191.145 207.336 186.209 198.758 C 181.158 189.979,181.086 189.842,181.513 189.842 C 182.297 189.842,185.586 187.983,186.815 186.845 C 191.583 182.428,191.384 173.736,186.431 170.090 C 182.972 167.543,180.025 167.043,168.483 167.043 L 159.819 167.043 159.819 187.246 M198.194 187.246 L 198.194 207.449 211.174 207.449 L 224.153 207.449 224.154 205.135 L 224.154 202.822 215.406 202.822 L 206.659 202.822 206.659 184.932 L 206.659 167.043 202.427 167.043 L 198.194 167.043 198.194 187.246 M234.639 181.885 C 231.953 190.048,228.952 199.099,227.970 201.998 C 226.988 204.896,226.185 207.309,226.185 207.359 C 226.185 207.620,234.557 207.431,234.640 207.167 C 234.689 207.012,234.947 206.123,235.214 205.192 C 235.481 204.261,235.786 203.245,235.892 202.935 C 235.997 202.624,236.306 201.608,236.577 200.677 C 237.588 197.208,237.739 196.715,237.938 196.215 L 238.143 195.704 244.281 195.764 L 250.419 195.824 250.585 196.388 C 250.676 196.699,251.057 198.019,251.431 199.323 C 251.805 200.626,252.259 202.150,252.439 202.709 C 252.619 203.267,253.001 204.563,253.288 205.587 L 253.809 207.449 258.144 207.449 L 262.478 207.449 260.625 201.749 C 259.606 198.615,256.595 189.523,253.935 181.547 L 249.097 167.044 244.309 167.044 L 239.522 167.043 234.639 181.885 M268.172 187.247 L 268.172 207.483 277.822 207.387 C 288.744 207.277,289.709 207.155,293.312 205.427 C 302.091 201.217,301.727 189.117,292.753 186.831 C 290.937 186.368,290.865 185.439,292.583 184.637 C 297.863 182.176,299.075 174.555,294.820 170.575 C 291.754 167.707,289.216 167.198,277.483 167.094 L 268.172 167.012 268.172 187.247 M283.152 171.339 C 287.455 171.832,289.155 173.590,289.162 177.556 C 289.171 182.267,286.847 184.022,280.418 184.160 L 276.524 184.243 276.524 177.675 L 276.524 171.106 278.837 171.108 C 280.110 171.109,282.051 171.213,283.152 171.339 M112.148 171.561 C 119.622 172.348,122.920 177.122,122.905 187.133 C 122.890 198.034,118.863 202.935,109.921 202.935 L 107.449 202.935 107.449 187.284 C 107.449 178.676,107.517 171.565,107.600 171.482 C 107.812 171.270,109.689 171.302,112.148 171.561 M177.460 171.852 C 180.820 172.964,181.828 174.512,181.828 178.560 C 181.828 184.281,179.266 186.335,172.122 186.340 L 168.284 186.343 168.225 179.122 C 168.192 175.150,168.218 171.761,168.284 171.591 C 168.454 171.146,175.973 171.360,177.460 171.852 M244.697 176.354 C 244.957 177.255,245.255 178.245,245.358 178.555 C 245.461 178.866,245.673 179.577,245.828 180.135 C 245.984 180.694,246.201 181.456,246.311 181.828 C 247.530 185.956,248.709 190.074,248.913 190.914 L 249.037 191.422 244.133 191.422 C 239.551 191.422,239.240 191.396,239.392 191.027 C 239.597 190.527,241.127 185.452,241.960 182.506 C 242.549 180.422,242.756 179.710,243.009 178.894 C 243.164 178.397,243.468 177.255,243.685 176.354 C 243.902 175.454,244.112 174.718,244.152 174.718 C 244.192 174.718,244.437 175.454,244.697 176.354 M284.086 188.479 C 289.023 189.062,291.065 190.803,291.358 194.679 C 291.813 200.694,289.070 202.946,281.095 203.108 L 276.524 203.200 276.524 195.731 L 276.524 188.262 279.402 188.264 C 280.985 188.265,283.093 188.361,284.086 188.479 " stroke="none" fill="#0c0414" fill-rule="evenodd"></path><path id="path2" d="M102.327 166.986 C 104.042 167.024,106.784 167.024,108.422 166.986 C 110.060 166.947,108.657 166.916,105.305 166.916 C 101.953 166.916,100.613 166.948,102.327 166.986 M142.607 166.985 C 143.756 167.026,145.635 167.026,146.783 166.985 C 147.932 166.944,146.992 166.911,144.695 166.911 C 142.398 166.911,141.459 166.944,142.607 166.985 M163.713 166.986 C 165.793 167.023,169.196 167.023,171.275 166.986 C 173.355 166.949,171.653 166.918,167.494 166.918 C 163.335 166.918,161.634 166.949,163.713 166.986 M200.271 166.985 C 201.351 167.026,203.179 167.027,204.334 166.985 C 205.489 166.944,204.605 166.911,202.370 166.910 C 200.135 166.910,199.191 166.944,200.271 166.985 M241.930 166.986 C 243.203 167.026,245.285 167.026,246.558 166.986 C 247.830 166.945,246.789 166.912,244.244 166.912 C 241.699 166.912,240.657 166.945,241.930 166.986 M271.854 166.986 C 273.817 167.024,276.966 167.024,278.852 166.986 C 280.737 166.948,279.131 166.917,275.282 166.918 C 271.433 166.918,269.891 166.948,271.854 166.986 M169.470 190.911 C 170.121 190.957,171.188 190.957,171.840 190.911 C 172.492 190.866,171.958 190.828,170.655 190.828 C 169.351 190.828,168.818 190.866,169.470 190.911 M102.314 207.618 C 104.021 207.656,106.814 207.656,108.521 207.618 C 110.229 207.580,108.832 207.548,105.418 207.548 C 102.003 207.548,100.607 207.580,102.314 207.618 M142.483 207.617 C 143.563 207.658,145.391 207.659,146.546 207.618 C 147.701 207.576,146.817 207.543,144.582 207.542 C 142.348 207.542,141.403 207.576,142.483 207.617 M161.896 207.617 C 162.976 207.658,164.805 207.659,165.959 207.618 C 167.114 207.576,166.230 207.543,163.995 207.542 C 161.761 207.542,160.816 207.576,161.896 207.617 M184.718 207.618 C 185.935 207.658,187.865 207.658,189.007 207.617 C 190.149 207.576,189.153 207.543,186.795 207.543 C 184.436 207.544,183.501 207.577,184.718 207.618 M204.668 207.618 C 208.166 207.653,213.956 207.653,217.535 207.618 C 221.113 207.583,218.251 207.555,211.174 207.555 C 204.097 207.555,201.169 207.583,204.668 207.618 M228.262 207.617 C 229.342 207.658,231.170 207.659,232.325 207.618 C 233.480 207.576,232.596 207.543,230.361 207.542 C 228.126 207.542,227.182 207.576,228.262 207.617 M256.151 207.617 C 257.300 207.658,259.179 207.658,260.327 207.617 C 261.476 207.576,260.536 207.543,258.239 207.543 C 255.942 207.543,255.003 207.576,256.151 207.617 M272.065 207.618 C 274.145 207.655,277.548 207.655,279.628 207.618 C 281.707 207.581,280.006 207.550,275.847 207.550 C 271.687 207.550,269.986 207.581,272.065 207.618 " stroke="none" fill="#8f8c93" fill-rule="evenodd"></path><path id="path3" d="M278.170 188.429 C 279.013 188.473,280.333 188.473,281.104 188.429 C 281.875 188.385,281.185 188.349,279.571 188.350 C 277.957 188.350,277.326 188.386,278.170 188.429 M211.343 202.878 C 213.671 202.914,217.480 202.914,219.808 202.878 C 222.136 202.841,220.231 202.811,215.576 202.811 C 210.920 202.811,209.015 202.841,211.343 202.878 " stroke="none" fill="#6a6a71" fill-rule="evenodd"></path><path id="path4" d="M148.867 187.133 C 148.867 198.245,148.894 202.791,148.928 197.235 C 148.961 191.679,148.961 182.587,148.928 177.032 C 148.894 171.476,148.867 176.021,148.867 187.133 M206.654 184.989 C 206.654 194.797,206.682 198.776,206.716 193.832 C 206.749 188.888,206.749 180.863,206.715 175.999 C 206.682 171.135,206.654 175.181,206.654 184.989 M277.822 171.273 C 278.598 171.317,279.867 171.317,280.643 171.273 C 281.419 171.229,280.784 171.193,279.233 171.193 C 277.681 171.193,277.046 171.229,277.822 171.273 M107.553 171.614 C 107.494 171.769,107.472 178.905,107.505 187.472 L 107.565 203.047 107.620 187.312 L 107.675 171.577 109.312 171.499 L 110.948 171.422 109.304 171.377 C 108.163 171.346,107.628 171.418,107.553 171.614 M168.273 178.894 C 168.273 182.991,168.303 184.699,168.340 182.689 C 168.378 180.680,168.378 177.328,168.341 175.240 C 168.303 173.153,168.273 174.797,168.273 178.894 M291.422 185.765 C 291.422 186.131,291.502 186.479,291.601 186.540 C 291.699 186.600,291.739 186.302,291.689 185.876 C 291.578 184.927,291.422 184.863,291.422 185.765 M168.274 199.097 C 168.274 203.629,168.304 205.483,168.341 203.217 C 168.377 200.951,168.377 197.243,168.341 194.977 C 168.304 192.712,168.274 194.565,168.274 199.097 " stroke="none" fill="#4c4b54" fill-rule="evenodd"></path></g></svg>